<?xml version="1.0" encoding="UTF-8" standalone="no"?>
<svg
   xmlns:osb="http://www.openswatchbook.org/uri/2009/osb"
   xmlns:dc="http://purl.org/dc/elements/1.1/"
   xmlns:cc="http://creativecommons.org/ns#"
   xmlns:rdf="http://www.w3.org/1999/02/22-rdf-syntax-ns#"
   xmlns:svg="http://www.w3.org/2000/svg"
   xmlns="http://www.w3.org/2000/svg"
   xmlns:sodipodi="http://sodipodi.sourceforge.net/DTD/sodipodi-0.dtd"
   xmlns:inkscape="http://www.inkscape.org/namespaces/inkscape"
   sodipodi:docname="blog.svg"
   inkscape:version="1.0 (4035a4fb49, 2020-05-01)"
   id="svg8"
   version="1.1"
   viewBox="0 0 10.583343 10.583334"
   height="40"
   width="40">
  <defs
     id="defs2">
    <marker
       inkscape:isstock="true"
       style="overflow:visible"
       id="marker3716"
       refX="0.0"
       refY="0.0"
       orient="auto"
       inkscape:stockid="Tail">
      <g
         transform="scale(-1.2)"
         id="g3714">
        <path
           style="fill:none;fill-rule:evenodd;stroke:#000000;stroke-width:0.8;stroke-linecap:round"
           d="M -3.8048674,-3.9585227 L 0.54352094,0"
           id="path3702" />
        <path
           style="fill:none;fill-rule:evenodd;stroke:#000000;stroke-width:0.8;stroke-linecap:round"
           d="M -1.2866832,-3.9585227 L 3.0617053,0"
           id="path3704" />
        <path
           style="fill:none;fill-rule:evenodd;stroke:#000000;stroke-width:0.8;stroke-linecap:round"
           d="M 1.3053582,-3.9585227 L 5.6537466,0"
           id="path3706" />
        <path
           style="fill:none;fill-rule:evenodd;stroke:#000000;stroke-width:0.8;stroke-linecap:round"
           d="M -3.8048674,4.1775838 L 0.54352094,0.21974226"
           id="path3708" />
        <path
           style="fill:none;fill-rule:evenodd;stroke:#000000;stroke-width:0.8;stroke-linecap:round"
           d="M -1.2866832,4.1775838 L 3.0617053,0.21974226"
           id="path3710" />
        <path
           style="fill:none;fill-rule:evenodd;stroke:#000000;stroke-width:0.8;stroke-linecap:round"
           d="M 1.3053582,4.1775838 L 5.6537466,0.21974226"
           id="path3712" />
      </g>
    </marker>
    <marker
       inkscape:isstock="true"
       style="overflow:visible"
       id="Tail"
       refX="0.0"
       refY="0.0"
       orient="auto"
       inkscape:stockid="Tail">
      <g
         transform="scale(-1.2)"
         id="g3442">
        <path
           style="fill:none;fill-rule:evenodd;stroke:#000000;stroke-width:0.8;stroke-linecap:round"
           d="M -3.8048674,-3.9585227 L 0.54352094,0"
           id="path3430" />
        <path
           style="fill:none;fill-rule:evenodd;stroke:#000000;stroke-width:0.8;stroke-linecap:round"
           d="M -1.2866832,-3.9585227 L 3.0617053,0"
           id="path3432" />
        <path
           style="fill:none;fill-rule:evenodd;stroke:#000000;stroke-width:0.8;stroke-linecap:round"
           d="M 1.3053582,-3.9585227 L 5.6537466,0"
           id="path3434" />
        <path
           style="fill:none;fill-rule:evenodd;stroke:#000000;stroke-width:0.8;stroke-linecap:round"
           d="M -3.8048674,4.1775838 L 0.54352094,0.21974226"
           id="path3436" />
        <path
           style="fill:none;fill-rule:evenodd;stroke:#000000;stroke-width:0.8;stroke-linecap:round"
           d="M -1.2866832,4.1775838 L 3.0617053,0.21974226"
           id="path3438" />
        <path
           style="fill:none;fill-rule:evenodd;stroke:#000000;stroke-width:0.8;stroke-linecap:round"
           d="M 1.3053582,4.1775838 L 5.6537466,0.21974226"
           id="path3440" />
      </g>
    </marker>
    <marker
       inkscape:isstock="true"
       style="overflow:visible"
       id="Arrow1Lstart"
       refX="0.0"
       refY="0.0"
       orient="auto"
       inkscape:stockid="Arrow1Lstart">
      <path
         transform="scale(0.8) translate(12.5,0)"
         style="fill-rule:evenodd;stroke:#000000;stroke-width:1.0pt"
         d="M 0.0,0.0 L 5.0,-5.0 L -12.5,0.0 L 5.0,5.0 L 0.0,0.0 z "
         id="path3394" />
    </marker>
    <linearGradient
       osb:paint="solid"
       id="linearGradient3390">
      <stop
         id="stop3388"
         offset="0"
         style="stop-color:#000000;stop-opacity:1;" />
    </linearGradient>
  </defs>
  <sodipodi:namedview
     inkscape:window-maximized="0"
     inkscape:window-y="0"
     inkscape:window-x="0"
     inkscape:window-height="1080"
     inkscape:window-width="1920"
     inkscape:snap-page="true"
     inkscape:snap-text-baseline="true"
     inkscape:snap-center="true"
     inkscape:snap-object-midpoints="true"
     width="1e-05mm"
     units="px"
     showgrid="false"
     inkscape:document-rotation="0"
     inkscape:current-layer="layer1"
     inkscape:document-units="px"
     inkscape:cy="17.226994"
     inkscape:cx="28.114413"
     inkscape:zoom="18.010168"
     inkscape:pageshadow="2"
     inkscape:pageopacity="0.0"
     borderopacity="1.0"
     bordercolor="#666666"
     pagecolor="#ffffff"
     id="base" />
  <metadata
     id="metadata5">
    <rdf:RDF>
      <cc:Work
         rdf:about="">
        <dc:format>image/svg+xml</dc:format>
        <dc:type
           rdf:resource="http://purl.org/dc/dcmitype/StillImage" />
        <dc:title></dc:title>
      </cc:Work>
    </rdf:RDF>
  </metadata>
  <g
     id="layer1"
     inkscape:groupmode="layer"
     inkscape:label="Layer 1">
    <text
       id="text12"
       y="5.6517191"
       x="0.55414218"
       style="font-size:3.52778px;line-height:1.25;font-family:Cozette;-inkscape-font-specification:Cozette;stroke-width:0.264583"
       xml:space="preserve"><tspan
         style="font-size:3.52778px;stroke-width:0.264583"
         y="5.6517191"
         x="0.55414218"
         id="tspan10"
         sodipodi:role="line" /></text>
    <path
       transform="scale(0.26458346)"
       d="M 3.2226562,5 C 2.3135641,5.5054512 1.632234,5.7428203 0,6.0996094 v 0.8320312 h 1.15625 c 0.3719014,0 0.5175781,0.3287305 0.5175781,1.2207032 V 22.037109 c 0,1.84341 -0.021387,2.704758 -0.1660156,4.726563 l 0.3300781,0.179687 0.828125,-1.070312 c 0.8264476,0.773043 1.5690195,1.070312 2.6640625,1.070312 0.8057864,0 1.3227976,-0.178578 1.7773438,-0.654297 L 9.1738281,24.148438 C 10.08292,23.197 10.806641,20.729061 10.806641,18.558594 c 0,-3.478694 -1.5501486,-5.917969 -3.7402348,-5.917969 -0.9710757,0 -2.0049546,0.535551 -2.5214843,1.308594 L 3.4082031,15.615234 V 5.2382812 Z M 15.433594,5 c -0.909093,0.5054512 -1.590425,0.7428203 -3.222656,1.0996094 v 0.8320312 h 1.15625 c 0.371899,0 0.517578,0.3287305 0.517578,1.2207032 V 23.552734 c -0.02066,1.932608 -0.04248,2.051428 -0.765625,2.140625 l -0.949219,0.08984 v 0.892578 c 1.446283,-0.05946 2.04484,-0.08984 2.582031,-0.08984 0.537191,0 1.135748,0.03038 2.582031,0.08984 v -0.892578 l -0.949218,-0.08984 C 15.661624,25.57443 15.639802,25.515074 15.619141,23.552734 V 5.2382812 Z m 8.078125,7.640625 c -3.016534,0 -5.103516,3.06401 -5.103516,7.494141 0,4.192271 1.819907,7.044922 4.505859,7.044922 3.181824,0 5.453125,-3.180762 5.453126,-7.640626 0,-4.043607 -2.024886,-6.898437 -4.855469,-6.898437 z m 10.951172,0 c -0.909093,0 -1.963438,0.417281 -2.810547,1.130859 -1.157027,0.951438 -1.75586,2.377293 -1.75586,4.220704 0,2.200197 0.951541,3.717218 2.480469,3.955078 l -1.632812,1.814453 c -0.227273,0.445986 -0.310547,0.831359 -0.310547,1.277343 0,0.832508 0.371544,1.308356 1.363281,1.72461 L 30,28.162109 c -0.309918,0.23786 -0.578125,1.308329 -0.578125,2.259766 0,2.70565 1.818258,4.578125 4.462891,4.578125 3.119839,0 5.578125,-2.824252 5.578125,-6.421875 0,-2.170467 -0.991217,-3.658203 -2.4375,-3.658203 H 33.71875 c -1.074382,0 -1.570313,-0.355428 -1.570312,-1.158203 0,-0.386522 0.16511,-0.715028 0.68164,-1.369141 0.144628,-0.178394 0.186887,-0.207242 0.269531,-0.326172 0.206612,0.02973 0.330805,0.05859 0.496094,0.05859 0.888431,0 1.982969,-0.563541 2.830078,-1.425781 0.929754,-0.98117 1.384766,-2.170276 1.384766,-3.746094 0,-0.594648 -0.06323,-1.01082 -0.228516,-1.605469 h 1.902344 L 40,14.126953 l -0.08203,-0.355469 -2.933594,0.119141 c -0.764464,-0.891973 -1.509084,-1.25 -2.521484,-1.25 z m -11.322266,0.982422 c 1.921491,0 3.304688,2.972016 3.304687,7.015625 0,3.448961 -1.032344,5.560547 -2.726562,5.560547 -2.024797,0 -3.388672,-2.854168 -3.388672,-7.076172 0,-3.567891 0.992362,-5.5 2.810547,-5.5 z m 10.599609,0.0293 c 1.404961,0 2.333985,1.693883 2.333985,4.191406 0,1.96234 -0.847913,3.271484 -2.128907,3.271484 -1.384297,0 -2.312498,-1.546541 -2.3125,-3.835937 0,-2.319129 0.764445,-3.626953 2.107422,-3.626953 z M 6.1777344,14.574219 c 1.7355399,0 2.8300781,1.992459 2.8300781,5.173828 0,3.359763 -1.2192316,5.677734 -2.9960937,5.677734 -1.0743819,0 -2.6035157,-0.951355 -2.6035157,-1.605469 v -6.392578 c 0,-0.416254 0.2065304,-0.951144 0.5371094,-1.486328 0.5578521,-0.86224 1.3853131,-1.367187 2.2324219,-1.367187 z M 34.689453,27.001953 c 2.334715,0 3.140625,0.68458 3.140625,2.617188 0,2.556988 -1.632179,4.458984 -3.822266,4.458984 -1.797521,0 -3.015624,-1.516598 -3.015624,-3.716797 0,-1.337959 0.536833,-2.557049 1.363281,-3.0625 0.330579,-0.237859 0.908362,-0.296875 2.333984,-0.296875 z"
       style="font-style:normal;font-variant:normal;font-weight:normal;font-stretch:normal;font-size:6.55776px;line-height:1.25;font-family:P052;-inkscape-font-specification:P052;stroke-width:0.619631"
       id="text16" />
    <path
       d="M 31.994141,27.070312 15.316406,27.25 c -0.0024,0.0046 -0.0054,0.009 -0.0078,0.01367 z m -17.6875,0.189454 -0.69336,0.0078 c -0.0026,0.0052 -0.0052,0.01046 -0.0078,0.01563 l 0.693359,-0.0078 c 0.0027,-0.0052 0.0051,-0.01046 0.0078,-0.01563 z m -1.691407,0.01758 -8.3242184,0.08984 c -0.00962,0.008 -0.019639,0.01544 -0.029297,0.02344 l 8.3457032,-0.0957 c 0.0028,-0.0057 0.005,-0.0119 0.0078,-0.01758 z m -9.7441402,0.103515 -2.03710942,0.02148 c -5.1534e-4,0.0098 -0.001452,0.01951 -0.001953,0.0293 l 2.00781255,-0.02344 c 0.0098,-0.0083 0.021358,-0.01903 0.03125,-0.02734 z m -2.2695313,0.02539 -0.39257812,0.0039 c 2.3587e-4,0.0058 -2.0327e-4,0.0117 0,0.01758 l 0.22851562,0.0078 0.16210938,-0.002 c 4.6923e-4,-0.0091 0.001472,-0.01822 0.001953,-0.02734 z m -0.625,0.0059 -0.14257812,0.002 0.14257812,0.0059 c -1.0198e-4,-0.0026 1.0881e-4,-0.0052 0,-0.0078 z"
       transform="scale(0.26458346)"
       style="fill:none;stroke:#000000;stroke-width:0.999998px;stroke-linecap:butt;stroke-linejoin:miter;stroke-opacity:1"
       id="path40" />
    <path
       d="m 0.34890221,7.6062506 c -0.007892,-0.00934 -0.0160158,-0.018481 -0.023676,-0.02801 C 0.27012905,7.5097139 0.26434675,7.4975354 0.19935304,7.4189221 0.15403313,7.3641054 0.10813163,7.3097589 0.06141913,7.2561239 -0.11608922,7.0523097 -0.1952621,6.9697422 -0.38744255,6.7611948 -0.62507972,6.5019917 -0.87118922,6.2503527 -1.1030692,5.9858706 -1.142642,5.9407337 -1.182032,5.8953338 -1.218596,5.8477268 c -0.054391,-0.070818 -0.064749,-0.065682 -0.023381,-0.066017 0.018522,0.013221 0.037043,0.026445 0.055565,0.039666 4.603e-4,4.234e-4 0.0064,-0.00608 0.00594,-0.0065 v 0 c -0.021531,-0.013123 -0.043063,-0.026247 -0.064594,-0.039369 -0.043907,0.019748 -0.036196,0.00716 0.01575,0.079186 0.03515,0.048736 0.073697,0.09498 0.1126285,0.140751 0.06159,0.07241 0.12506364,0.1432109 0.18885193,0.2136927 0.1603902,0.1772201 0.36188413,0.3905686 0.5242545,0.5638012 0.20094192,0.2145457 0.40307736417,0.4280248 0.59379262,0.6518437 0.08421,0.098827 0.0615814,0.077587 0.12881299,0.157711 0.007965,0.00949 0.0164846,0.018505 0.0247269,0.027758 2.8311e-4,3.704e-4 0.005436,-0.00363 0.005153,-0.004 z"
       id="path191"
       style="fill:#ffffff;stroke-width:0.264583" />
    <path
       d="M 0.40911932,7.4323174 C 0.39609731,7.3842989 0.38349886,7.3361638 0.37005331,7.2882623 0.27244767,6.9405298 0.23760205,6.7962418 0.08028162,6.4326766 -0.00139753,6.2439172 -0.0932995,6.0595266 -0.19000646,5.878007 -0.27862824,5.7116634 -0.3802086,5.5525548 -0.47530966,5.3898289 -0.4898853,5.3568467 -0.95632234,5.562977 -0.94174673,5.5959592 v 0 c 0.0831578,0.1671887 0.16057928,0.3373553 0.24947331,0.5015661 0.0980941,0.1812056 0.20061195,0.3602489 0.31118667,0.53412 0.1933543,0.3040365 0.41250779,0.5902457 0.64918846,0.8614234 0.004296,0.00997 0.14531339,-0.05078 0.14101761,-0.060751 z"
       id="path195"
       style="fill:#ffffff;stroke-width:0.264583" />
    <path
       d="m 0.38463297,7.7840449 c -0.00592,-0.024407 -0.009836,-0.049389 -0.0177599,-0.07322 C 0.32684225,7.5904335 0.28321966,7.5013144 0.22492993,7.3850882 0.18216497,7.2998177 0.14067622,7.2137471 0.09283055,7.1312201 -0.02869801,6.9216007 -0.09431368,6.8430101 -0.23513958,6.6520039 -0.40307851,6.4520762 -0.32312313,6.5385764 -0.47061315,6.388511 -0.47765015,6.375303 -0.66442487,6.474819 -0.65738809,6.488026 v 0 c 0.0782431,0.1922453 0.0299859,0.086821 0.15203241,0.3128469 0.13098588,0.207525 0.16828691,0.2749652 0.3184506,0.4767857 0.0567567,0.076281 0.11849361,0.1487333 0.17685297,0.2237956 0.09022812,0.1160521 0.17340667,0.2399555 0.28133636,0.3410335 0.004133,0.00801 0.11748127,-0.050428 0.11334872,-0.058443 z"
       id="path197"
       style="fill:#ffffff;stroke-width:0.264583" />
    <path
       transform="matrix(0.45830698,0.42107927,-0.57081974,0.62128603,7.2882683,-2.153367)"
       d="m 9.2996111,4.6788092 c -0.00909,-0.0669 0.085695,-0.04526 0.1111924,-0.015108 0.069096,0.081708 0.00145,0.1983654 -0.080976,0.2374932 C 9.1823919,4.9711843 9.0171816,4.8668388 8.9660339,4.7241342 8.8909726,4.5147094 9.0361568,4.2952609 9.2391777,4.2340396 9.5097727,4.1524412 9.785021,4.3398496 9.8555731,4.6032675 9.9443556,4.9347519 9.714131,5.2664475 9.3902611,5.3459635 8.9980114,5.4422681 8.6095353,5.1689237 8.5212643,4.7845675 8.41724,4.331617 8.7338798,3.8861652 9.1787444,3.78927 9.6923581,3.6774007 10.194911,4.0374466 10.300343,4.5428341 10.420141,5.1170876 10.016615,5.6768253 9.4506945,5.7907331 8.815817,5.9185204 8.1988337,5.4714619 8.0764947,4.8450009 7.9406753,4.1495104 8.4313043,3.4752372 9.118311,3.3445004"
       sodipodi:t0="0"
       sodipodi:argument="-20.555401"
       sodipodi:radius="1.3465695"
       sodipodi:revolution="3"
       sodipodi:expansion="1"
       sodipodi:cy="4.6788092"
       sodipodi:cx="9.2996111"
       id="path227"
       style="fill:#4d4d4d;fill-rule:evenodd;stroke:#000000;stroke-width:0.264583"
       sodipodi:type="spiral" />
    <rect
       y="1.292125"
       x="-8.8817842e-16"
       height="8.0003128"
       width="10.583339"
       id="rect1072"
       style="opacity:1;mix-blend-mode:normal;fill:#ffffff;fill-opacity:0.274561;fill-rule:evenodd;stroke:none;stroke-opacity:1;stroke-width:1.05833385;stroke-miterlimit:4;stroke-dasharray:none;paint-order:stroke fill markers" />
  </g>
</svg>
